# xmcd
#
# Track frame offsets:
#	182
#	17745
#	40097
#	52270
#	69892
#	89272
#	105470
#	119945
#	137772
#	149892
#	168430
#	182700
#
# Disc length: 2770 seconds
#
# Revision: 1
# Processed by: cddbd v1.5.2PL0 Copyright (c) Steve Scherf et al.
# Submitted via: EZCDAudioConverter 7.1.2.1
#
DISCID=b20ad00c
DTITLE=Alabama - Down Home
DYEAR=1994
DGENRE=Country
TTITLE0=Mountain Music
TTITLE1=Tar Top
TTITLE2=See The Embers, Feel The Flame
TTITLE3=What In The Name Of Love
TTITLE4=Red River
TTITLE5=Close Enough To Perfect
TTITLE6=Song Of The South
TTITLE7=Dixieland Delight
TTITLE8=Is This How Love Begins
TTITLE9=Keep On Dreamin'
TTITLE10=Some Other Time, Some Other Place
TTITLE11=Vacation
EXTD=
EXTT0=
EXTT1=
EXTT2=
EXTT3=
EXTT4=
EXTT5=
EXTT6=
EXTT7=
EXTT8=
EXTT9=
EXTT10=
EXTT11=
PLAYORDER=
